<svg width="65" height="65" viewBox="0 0 65 65" fill="none" xmlns="http://www.w3.org/2000/svg">
<path d="M8.125 56.875H13.5417V40.625H8.125V56.875ZM33.7458 59.5833L25.8104 57.85L17.875 55.9812C17.4157 55.8917 17.003 55.6422 16.7104 55.277C16.4055 54.9238 16.2416 54.4706 16.25 54.0041V43.1708C16.2577 42.7071 16.4197 42.2592 16.7104 41.8979C17.0129 41.5442 17.4212 41.2973 17.875 41.1937L30.8208 39.5958L43.7937 37.9708L44.2 39.4875L44.6062 40.977C44.6134 41.4764 44.472 41.9666 44.2 42.3854C43.9511 42.8233 43.5726 43.1734 43.1167 43.3875L37.7 44.7416L32.2833 46.0958L36.6708 47.8833L41.0854 49.6437L47.2333 47.9104L53.2187 46.0416C53.7506 45.9071 54.314 45.9848 54.7896 46.2583C55.0291 46.3876 55.2393 46.5651 55.4071 46.7794C55.5749 46.9938 55.6966 47.2405 55.7646 47.5041L56.2792 49.5895L56.8208 51.6479C56.9436 52.1626 56.8662 52.7048 56.6042 53.1645C56.3256 53.6284 55.8797 53.9677 55.3583 54.1125L45.5271 56.8208L35.6958 59.5291C35.3722 59.5711 35.0445 59.5711 34.7208 59.5291C34.401 59.6007 34.0716 59.619 33.7458 59.5833ZM24.375 10.8333L18.9583 16.25L13.5417 21.6666L18.9583 27.0833L24.375 32.5L26.2708 30.6041L28.1667 28.7083L24.6458 25.1875L21.125 21.6666L24.6458 18.1458L28.1667 14.625L26.2708 12.7291L24.375 10.8333ZM40.625 10.8333L38.7292 12.7291L36.8333 14.625L40.3542 18.1458L43.875 21.6666L40.3542 25.1875L36.8333 28.7083L38.7292 30.6041L40.625 32.5L46.0417 27.0833L51.4583 21.6666L46.0417 16.25L40.625 10.8333Z" fill="#299E60"/>
</svg>
