<svg width="65" height="65" viewBox="0 0 65 65" fill="none" xmlns="http://www.w3.org/2000/svg">
<path d="M48.7503 21.6667H43.3336V18.9584C43.3336 17.5218 42.763 16.144 41.7471 15.1282C40.7313 14.1124 39.3536 13.5417 37.917 13.5417H10.8337C9.39707 13.5417 8.01932 14.1124 7.0035 15.1282C5.98767 16.144 5.41699 17.5218 5.41699 18.9584V46.0417H10.8337C10.8337 47.1087 11.0438 48.1652 11.4521 49.151C11.8605 50.1368 12.4589 51.0325 13.2134 51.7869C13.9679 52.5414 14.8636 53.1399 15.8494 53.5482C16.8351 53.9565 17.8917 54.1667 18.9587 54.1667C20.0256 54.1667 21.0822 53.9565 22.068 53.5482C23.0537 53.1399 23.9494 52.5414 24.7039 51.7869C25.4584 51.0325 26.0569 50.1368 26.4652 49.151C26.8735 48.1652 27.0837 47.1087 27.0837 46.0417H37.917C37.917 48.1966 38.773 50.2632 40.2967 51.7869C41.8205 53.3107 43.8871 54.1667 46.042 54.1667C48.1969 54.1667 50.2635 53.3107 51.7872 51.7869C53.311 50.2632 54.167 48.1966 54.167 46.0417H59.5836V32.5L48.7503 21.6667ZM18.9587 50.1042C18.425 50.104 17.8966 49.9987 17.4036 49.7943C16.9106 49.5899 16.4627 49.2904 16.0855 48.913C15.7082 48.5355 15.409 48.0874 15.205 47.5942C15.0009 47.1011 14.896 46.5727 14.8962 46.039C14.8963 45.5053 15.0016 44.9769 15.206 44.4839C15.4104 43.9909 15.7099 43.543 16.0874 43.1658C16.4649 42.7886 16.913 42.4894 17.4061 42.2853C17.8992 42.0812 18.4277 41.9763 18.9614 41.9765C20.0392 41.9768 21.0727 42.4053 21.8345 43.1677C22.5964 43.9301 23.0242 44.9639 23.0239 46.0417C23.0235 47.1195 22.595 48.153 21.8326 48.9149C21.0703 49.6767 20.0365 50.1045 18.9587 50.1042ZM10.8337 37.9167V18.9584H37.917V37.9167H10.8337ZM46.042 50.1042C45.5083 50.104 44.9799 49.9987 44.4869 49.7943C43.9939 49.5899 43.546 49.2904 43.1688 48.913C42.7916 48.5355 42.4924 48.0874 42.2883 47.5942C42.0842 47.1011 41.9793 46.5727 41.9795 46.039C41.9797 45.5053 42.0849 44.9769 42.2893 44.4839C42.4937 43.9909 42.7932 43.543 43.1707 43.1658C43.5482 42.7886 43.9963 42.4894 44.4894 42.2853C44.9825 42.0812 45.511 41.9763 46.0447 41.9765C47.1225 41.9768 48.156 42.4053 48.9179 43.1677C49.6797 43.9301 50.1075 44.9639 50.1072 46.0417C50.1068 47.1195 49.6783 48.153 48.916 48.9149C48.1536 49.6767 47.1198 50.1045 46.042 50.1042Z" fill="#299E60"/>
</svg>
