<svg width="65" height="65" viewBox="0 0 65 65" fill="none" xmlns="http://www.w3.org/2000/svg">
<mask id="mask0_1233_26" style="mask-type:luminance" maskUnits="userSpaceOnUse" x="5" y="10" width="55" height="45">
<path d="M37.9167 10.8333H27.0834C16.8702 10.8333 11.7623 10.8333 8.59086 14.0075C6.30503 16.2906 5.66586 19.5785 5.48711 25.0521H59.5129C59.3342 19.5785 58.695 16.2906 56.4092 14.0075C53.2377 10.8333 48.1298 10.8333 37.9167 10.8333ZM27.0834 54.1667H37.9167C48.1298 54.1667 53.2377 54.1667 56.4092 50.9925C59.5806 47.8183 59.5834 42.7131 59.5834 32.5C59.5834 31.3047 59.5815 30.1762 59.5779 29.1146H5.42211C5.41669 30.1762 5.41489 31.3047 5.41669 32.5C5.41669 42.7131 5.41669 47.821 8.59086 50.9925C11.765 54.164 16.8702 54.1667 27.0834 54.1667Z" fill="white"/>
<path fill-rule="evenodd" clip-rule="evenodd" d="M14.2188 43.3333C14.2188 42.7946 14.4328 42.2779 14.8137 41.897C15.1946 41.5161 15.7113 41.3021 16.25 41.3021H27.0833C27.6221 41.3021 28.1387 41.5161 28.5196 41.897C28.9006 42.2779 29.1146 42.7946 29.1146 43.3333C29.1146 43.872 28.9006 44.3887 28.5196 44.7696C28.1387 45.1506 27.6221 45.3646 27.0833 45.3646H16.25C15.7113 45.3646 15.1946 45.1506 14.8137 44.7696C14.4328 44.3887 14.2188 43.872 14.2188 43.3333ZM31.8229 43.3333C31.8229 42.7946 32.0369 42.2779 32.4179 41.897C32.7988 41.5161 33.3155 41.3021 33.8542 41.3021H37.9167C38.4554 41.3021 38.9721 41.5161 39.353 41.897C39.7339 42.2779 39.9479 42.7946 39.9479 43.3333C39.9479 43.872 39.7339 44.3887 39.353 44.7696C38.9721 45.1506 38.4554 45.3646 37.9167 45.3646H33.8542C33.3155 45.3646 32.7988 45.1506 32.4179 44.7696C32.0369 44.3887 31.8229 43.872 31.8229 43.3333Z" fill="black"/>
</mask>
<g mask="url(#mask0_1233_26)">
<path d="M0 0H65V65H0V0Z" fill="#299E60"/>
</g>
</svg>
