<svg width="65" height="65" viewBox="0 0 65 65" fill="none" xmlns="http://www.w3.org/2000/svg">
<path d="M25 0C11.3675 0 0 9.375 0 21.25C0 27.325 3.325 32.62 8.0475 36.485C7.74012 38.538 6.90543 40.4761 5.625 42.11C5.10223 42.7805 4.5552 43.4318 3.985 44.0625C3.69007 44.3731 3.42786 44.7132 3.2025 45.0775C3.06 45.31 2.8375 45.57 2.735 46.095C2.6325 46.62 2.7725 47.4775 3.2025 48.125L3.515 48.6725L4.14 48.985C6.3275 50.0775 8.69 49.885 10.86 49.2975C13.0275 48.7075 15.1125 47.6975 17.11 46.64C19.1075 45.5825 21.0025 44.48 22.5 43.6725C22.71 43.56 22.845 43.5325 23.0475 43.4375C26.99 48.8575 34.21 52.5 42.265 52.5C42.3425 52.51 42.415 52.5 42.5 52.5C45.75 52.5 56.25 63.235 62.5 58.985C62.75 57.9875 57.005 55.485 56.7175 48.0475C61.61 44.59 64.7675 39.4475 64.7675 33.75C64.7675 25.32 58.0775 18.355 49.1425 15.86C46.315 6.66 36.485 0 25 0ZM25 5C36.3675 5 45 12.625 45 21.25C45 29.875 36.3675 37.5 25 37.5C22.97 37.5 21.805 38.33 20.155 39.22C18.505 40.11 16.6125 41.21 14.765 42.1875C13.165 43.0325 11.64 43.6825 10.235 44.14C11.6025 42.165 13.03 39.5675 13.28 35.9375L13.36 34.53L12.1875 33.6725C7.7325 30.55 5 26.0575 5 21.25C5 12.625 13.6325 5 25 5Z" fill="#299E60"/>
</svg>
