<svg width="24" height="24" viewBox="0 0 24 24" fill="none" xmlns="http://www.w3.org/2000/svg">
<path fill-rule="evenodd" clip-rule="evenodd" d="M8.77531 11.3552C7.80788 10.477 7.20039 9.20946 7.20039 7.8C7.20039 5.14903 9.34942 3 12.0004 3C14.6514 3 16.8004 5.14903 16.8004 7.8C16.8004 9.20946 16.1929 10.477 15.2255 11.3552C18.941 12.6801 21.6004 16.2295 21.6004 20.4H19.8004C19.8004 16.0922 16.3082 12.6 12.0004 12.6C7.69257 12.6 4.20039 16.0922 4.20039 20.4H2.40039C2.40039 16.2295 5.0598 12.6801 8.77531 11.3552ZM12 10.8C13.6569 10.8 15 9.4569 15 7.80005C15 6.14319 13.6569 4.80005 12 4.80005C10.3431 4.80005 9 6.14319 9 7.80005C9 9.4569 10.3431 10.8 12 10.8Z" fill="#304659"/>
</svg>
