<?xml version="1.0" encoding="UTF-8"?>
<svg id="Layer_2" data-name="Layer 2" xmlns="http://www.w3.org/2000/svg" viewBox="0 0 1034.08 357.23">
  <defs>
    <style>
      .cls-1 {
        font-family: Helvetica, Helvetica;
        font-size: 43.71px;
      }

      .cls-1, .cls-2 {
        fill: #299e60;
      }

      .cls-3 {
        fill-rule: evenodd;
      }

      .cls-3, .cls-4, .cls-5 {
        fill: #ff9800;
      }

      .cls-6 {
        fill: #fff;
        opacity: .15;
      }

      .cls-5 {
        font-family: Helvetica-Bold, Helvetica;
        font-size: 153.11px;
        font-weight: 700;
      }
    </style>
  </defs>
  <g id="Object">
    <g>
      <g>
        <circle class="cls-4" cx="128.97" cy="332.06" r="25.17"/>
        <circle class="cls-4" cx="246.28" cy="332.06" r="25.17"/>
      </g>
      <path class="cls-3" d="m298.94,213.93l20.22-68.43c2.82-9.54-5.4-18.62-16.2-18.62h-4.02s-196.01,0-196.01,0c0,0-.02,0-.02-.01l-1.79-9.9-2.33-12.87c-.88-4.85-2.88-9.52-6.04-13.15-3.68-4.23-8.94-7.04-15.82-7.04H18.11c-9.18,0-17.14,6.82-18.02,15.96-1.02,10.51,7.31,19.44,17.62,19.44h38.39c4.02,0,7.48,2.83,8.28,6.77l8.67,42.73,20.97,103.38c2.51,12.36,10.32,22.92,22.94,22.94h159.88c7.69,0,14.32-5.84,14.81-13.52.47-7.37-4.68-13.69-11.57-15.08h0s-144.17,0-144.17,0c-.9,0-1.78-.1-2.63-.28-5.85-1.28-10.2-6.71-9.76-13.02.46-6.57,6.15-11.55,12.73-11.55h140.71c9.84,0,16.65-9.64,18.92-17.32l3.08-10.42h0Zm-30.53-51.51c4.52,0,7.73,4.39,6.36,8.7l-8.11,25.45c-1.76,5.51-6.88,9.25-12.66,9.25H124.46c-4.36,0-8.17-2.97-9.23-7.2,0,0-3.88-15.4-6.76-26.83-1.18-4.7,2.37-9.25,7.21-9.26h0s152.72-.12,152.72-.12Z"/>
    </g>
    <g>
      <g>
        <path class="cls-2" d="m292.58,17.82v16.59c0,38.69-31.36,70.05-70.05,70.05h-16.59c-9.84,0-17.82-7.98-17.82-17.82v-16.59C188.12,31.36,219.48,0,258.17,0h16.59c9.84,0,17.82,7.98,17.82,17.82Z"/>
        <path class="cls-6" d="m259.4,51h0c0,29.53-23.94,53.46-53.46,53.46h0c-9.84,0-17.82-7.98-17.82-17.82h0c0-29.53,23.94-53.46,53.46-53.46h0c9.84,0,17.82,7.98,17.82,17.82Z"/>
      </g>
      <g>
        <path class="cls-2" d="m120.93,49.35v10.68c0,24.9,20.18,45.08,45.08,45.08h10.68c6.33,0,11.47-5.13,11.47-11.47v-10.68c0-24.9-20.18-45.08-45.08-45.08h-10.68c-6.33,0-11.47,5.13-11.47,11.47Z"/>
        <path class="cls-6" d="m142.28,70.7h0c0,19,15.4,34.4,34.4,34.4h0c6.33,0,11.47-5.13,11.47-11.47h0c0-19-15.4-34.4-34.4-34.4h0c-6.33,0-11.47,5.13-11.47,11.47Z"/>
      </g>
    </g>
    <text transform="translate(361.99 232.33)"><tspan class="cls-5"><tspan x="0" y="0">OG Store</tspan></tspan><tspan class="cls-1"><tspan x="0" y="52.45">Shopping Made Simple and Fresh</tspan></tspan></text>
  </g>
</svg>