<svg width="138" height="52" viewBox="0 0 138 52" fill="none" xmlns="http://www.w3.org/2000/svg">
<rect width="138" height="52" rx="26" fill="#E6E8EC"/>
<path d="M26.8877 20.0851C27.1193 19.5484 27.8803 19.5484 28.1119 20.0851L29.5653 23.4531C29.6634 23.6803 29.8793 23.8345 30.126 23.8536L33.8531 24.1416C34.4511 24.1878 34.6887 24.9385 34.2262 25.3204L31.4233 27.6346C31.2256 27.7978 31.139 28.0599 31.2006 28.3088L32.0632 31.7944C32.2051 32.3676 31.5867 32.8286 31.0779 32.529L27.838 30.6217C27.6293 30.4988 27.3703 30.4988 27.1616 30.6217L23.9218 32.529C23.4129 32.8286 22.7946 32.3676 22.9364 31.7944L23.7991 28.3088C23.8606 28.0599 23.7741 27.7978 23.5764 27.6346L20.7734 25.3204C20.3109 24.9385 20.5485 24.1878 21.1465 24.1416L24.8736 23.8536C25.1204 23.8345 25.3363 23.6803 25.4344 23.4531L26.8877 20.0851Z" fill="#FF9800"/>
<path d="M53.788 31.192C52.6893 31.192 51.724 30.9467 50.892 30.456C50.06 29.9653 49.404 29.288 48.924 28.424C48.4547 27.5493 48.22 26.5413 48.22 25.4C48.22 24.2587 48.4547 23.256 48.924 22.392C49.404 21.5173 50.06 20.8347 50.892 20.344C51.724 19.8533 52.6893 19.608 53.788 19.608C54.8867 19.608 55.852 19.8533 56.684 20.344C57.5267 20.8347 58.1773 21.5173 58.636 22.392C59.1053 23.256 59.34 24.2587 59.34 25.4C59.34 26.5413 59.1053 27.5493 58.636 28.424C58.1773 29.288 57.5267 29.9653 56.684 30.456C55.852 30.9467 54.8867 31.192 53.788 31.192ZM53.788 29.256C54.4707 29.256 55.0627 29.1013 55.564 28.792C56.0653 28.472 56.4493 28.024 56.716 27.448C56.9933 26.872 57.132 26.1893 57.132 25.4C57.132 24.6 56.9933 23.9173 56.716 23.352C56.4493 22.776 56.0653 22.3333 55.564 22.024C55.0627 21.7147 54.4707 21.56 53.788 21.56C53.1053 21.56 52.5133 21.7147 52.012 22.024C51.5107 22.3333 51.1213 22.776 50.844 23.352C50.5667 23.9173 50.428 24.6 50.428 25.4C50.428 26.1893 50.5667 26.872 50.844 27.448C51.1213 28.024 51.5107 28.472 52.012 28.792C52.5133 29.1013 53.1053 29.256 53.788 29.256ZM66.0625 31.192C65.0065 31.192 64.0838 30.9573 63.2945 30.488C62.5052 30.008 61.8865 29.3413 61.4385 28.488C61.0012 27.624 60.7825 26.6213 60.7825 25.48C60.7825 24.328 61.0065 23.3147 61.4545 22.44C61.9132 21.5547 62.5638 20.8613 63.4065 20.36C64.2492 19.8587 65.2518 19.608 66.4145 19.608C67.7372 19.608 68.8305 19.9227 69.6945 20.552C70.5692 21.1813 71.1345 22.056 71.3905 23.176H68.9745C68.8145 22.6853 68.5158 22.3013 68.0785 22.024C67.6518 21.736 67.0972 21.592 66.4145 21.592C65.6785 21.592 65.0545 21.752 64.5425 22.072C64.0412 22.392 63.6572 22.84 63.3905 23.416C63.1238 23.992 62.9905 24.68 62.9905 25.48C62.9905 26.2907 63.1238 26.9787 63.3905 27.544C63.6572 28.1093 64.0358 28.5413 64.5265 28.84C65.0278 29.128 65.6145 29.272 66.2865 29.272C67.2678 29.272 68.0092 29.0107 68.5105 28.488C69.0225 27.9547 69.3265 27.2667 69.4225 26.424H66.6705V24.808H71.5985V31H69.5985L69.4385 29.576C69.1932 29.928 68.9158 30.2267 68.6065 30.472C68.2972 30.7067 67.9345 30.8827 67.5185 31C67.1025 31.128 66.6172 31.192 66.0625 31.192ZM81.2256 31.192C80.415 31.192 79.6896 31.0533 79.0496 30.776C78.4096 30.4987 77.9083 30.0933 77.5456 29.56C77.183 29.0267 76.991 28.3813 76.9696 27.624H79.2576C79.2683 27.9547 79.3536 28.2533 79.5136 28.52C79.6736 28.7867 79.8976 29 80.1856 29.16C80.4736 29.3093 80.815 29.384 81.2096 29.384C81.551 29.384 81.8443 29.3307 82.0896 29.224C82.3456 29.1067 82.543 28.9467 82.6816 28.744C82.8203 28.5413 82.8896 28.3013 82.8896 28.024C82.8896 27.704 82.8096 27.4373 82.6496 27.224C82.5003 27.0107 82.287 26.8293 82.0096 26.68C81.7323 26.52 81.4123 26.3813 81.0496 26.264C80.6976 26.136 80.3243 26.008 79.9296 25.88C79.055 25.592 78.383 25.208 77.9136 24.728C77.455 24.248 77.2256 23.6133 77.2256 22.824C77.2256 22.152 77.3856 21.576 77.7056 21.096C78.0363 20.616 78.4843 20.248 79.0496 19.992C79.6256 19.736 80.287 19.608 81.0336 19.608C81.791 19.608 82.4523 19.7413 83.0176 20.008C83.5936 20.264 84.047 20.6373 84.3776 21.128C84.7083 21.6187 84.8843 22.1947 84.9056 22.856H82.5856C82.5856 22.6107 82.5163 22.3813 82.3776 22.168C82.2496 21.944 82.0683 21.768 81.8336 21.64C81.599 21.5013 81.3216 21.432 81.0016 21.432C80.7136 21.4213 80.4576 21.464 80.2336 21.56C80.0096 21.656 79.8283 21.8 79.6896 21.992C79.5616 22.1733 79.4976 22.4027 79.4976 22.68C79.4976 22.9467 79.5616 23.1707 79.6896 23.352C79.8176 23.5333 79.999 23.6933 80.2336 23.832C80.479 23.96 80.7563 24.0827 81.0656 24.2C81.3856 24.3067 81.7323 24.4187 82.1056 24.536C82.671 24.728 83.183 24.9573 83.6416 25.224C84.111 25.48 84.4843 25.816 84.7616 26.232C85.039 26.648 85.1776 27.1973 85.1776 27.88C85.1776 28.4667 85.023 29.0107 84.7136 29.512C84.415 30.0133 83.9723 30.4187 83.3856 30.728C82.799 31.0373 82.079 31.192 81.2256 31.192ZM90.5783 31C90.0236 31 89.5329 30.9147 89.1063 30.744C88.6796 30.5627 88.3489 30.2693 88.1143 29.864C87.8796 29.448 87.7623 28.8827 87.7623 28.168V24.776H86.3863V22.968H87.7623L88.0182 20.776H89.9223V22.968H92.0503V24.776H89.9223V28.2C89.9223 28.5627 90.0023 28.8133 90.1623 28.952C90.3223 29.0907 90.5943 29.16 90.9783 29.16H92.0183V31H90.5783ZM97.4578 31.192C96.6898 31.192 95.9964 31.016 95.3778 30.664C94.7698 30.3013 94.2844 29.8053 93.9218 29.176C93.5698 28.536 93.3938 27.8053 93.3938 26.984C93.3938 26.152 93.5698 25.4213 93.9218 24.792C94.2844 24.1627 94.7751 23.672 95.3938 23.32C96.0124 22.9573 96.7058 22.776 97.4738 22.776C98.2524 22.776 98.9458 22.9573 99.5538 23.32C100.172 23.672 100.658 24.1627 101.01 24.792C101.372 25.4213 101.554 26.152 101.554 26.984C101.554 27.8053 101.372 28.536 101.01 29.176C100.658 29.8053 100.172 30.3013 99.5538 30.664C98.9351 31.016 98.2364 31.192 97.4578 31.192ZM97.4578 29.32C97.8098 29.32 98.1244 29.2347 98.4018 29.064C98.6898 28.8933 98.9191 28.632 99.0898 28.28C99.2604 27.928 99.3458 27.496 99.3458 26.984C99.3458 26.4613 99.2604 26.0293 99.0898 25.688C98.9298 25.336 98.7058 25.0747 98.4178 24.904C98.1404 24.7333 97.8258 24.648 97.4738 24.648C97.1324 24.648 96.8178 24.7333 96.5298 24.904C96.2418 25.0747 96.0124 25.336 95.8418 25.688C95.6711 26.0293 95.5858 26.4613 95.5858 26.984C95.5858 27.496 95.6711 27.928 95.8418 28.28C96.0124 28.632 96.2364 28.8933 96.5138 29.064C96.8018 29.2347 97.1164 29.32 97.4578 29.32ZM103.415 31V22.968H105.335L105.527 24.456C105.73 24.104 105.975 23.8053 106.263 23.56C106.551 23.304 106.882 23.112 107.255 22.984C107.639 22.8453 108.061 22.776 108.519 22.776V25.064H107.799C107.479 25.064 107.181 25.1013 106.903 25.176C106.637 25.24 106.402 25.3573 106.199 25.528C105.997 25.6987 105.842 25.928 105.735 26.216C105.629 26.504 105.575 26.8667 105.575 27.304V31H103.415ZM113.678 31.192C112.867 31.192 112.147 31.0213 111.518 30.68C110.899 30.328 110.414 29.8427 110.062 29.224C109.721 28.5947 109.55 27.8747 109.55 27.064C109.55 26.2213 109.721 25.48 110.062 24.84C110.403 24.2 110.883 23.6987 111.502 23.336C112.131 22.9627 112.857 22.776 113.678 22.776C114.478 22.776 115.177 22.952 115.774 23.304C116.371 23.6453 116.835 24.1147 117.166 24.712C117.507 25.3093 117.678 25.9867 117.678 26.744C117.678 26.8507 117.673 26.9733 117.662 27.112C117.662 27.24 117.657 27.3733 117.646 27.512H111.086V26.184H115.486C115.465 25.6827 115.283 25.2827 114.942 24.984C114.601 24.6747 114.185 24.52 113.694 24.52C113.321 24.52 112.979 24.6053 112.67 24.776C112.361 24.9467 112.115 25.2027 111.934 25.544C111.763 25.8747 111.678 26.296 111.678 26.808V27.272C111.678 27.7093 111.758 28.0933 111.918 28.424C112.089 28.744 112.323 28.9947 112.622 29.176C112.921 29.3467 113.267 29.432 113.662 29.432C114.057 29.432 114.382 29.3467 114.638 29.176C114.905 29.0053 115.107 28.7813 115.246 28.504H117.438C117.289 29.016 117.038 29.4747 116.686 29.88C116.334 30.2853 115.902 30.6053 115.39 30.84C114.878 31.0747 114.307 31.192 113.678 31.192Z" fill="#299E60"/>
</svg>
