<svg xmlns="http://www.w3.org/2000/svg" version="1.1" xmlns:xlink="http://www.w3.org/1999/xlink" width="512" height="512" x="0" y="0" viewBox="0 0 510 510" style="enable-background:new 0 0 512 512" xml:space="preserve" fill-rule="evenodd" class=""><g><path d="M221.775 393.823H62.696c-14.47 0-28.339-5.532-38.571-15.343C13.786 368.565 8 355.109 8 341.088V60.735C8 31.692 32.409 8 62.696 8h331.608C424.59 8 448.998 31.691 449 60.732v159.16l16.513 16.527c6.706 6.706 6.706 17.583 0 24.289-17.18 17.18-4.983 46.616 19.308 46.616 9.516 0 17.179 7.693 17.179 17.179v30.994c0 9.486-7.663 17.179-17.179 17.179-24.291 0-36.488 29.436-19.308 46.616 6.703 6.702 6.703 17.605 0 24.307l-21.914 21.914c-6.702 6.703-17.605 6.703-24.307 0-17.18-17.18-46.616-4.983-46.616 19.308 0 9.516-7.693 17.179-17.179 17.179h-30.994c-9.486 0-17.179-7.663-17.179-17.179 0-24.321-29.421-36.502-46.616-19.308-6.706 6.706-17.583 6.706-24.287.003l-21.934-21.917c-6.703-6.702-6.703-17.605 0-24.307 7.337-7.337 9.319-16.909 7.288-25.469zM22 98.609v242.479c0 10.238 4.265 20.047 11.815 27.287 7.657 7.343 18.051 11.448 28.881 11.448H213.67c-4.681-4.36-11.012-7.147-18.491-7.147-9.486 0-17.179-7.693-17.179-17.179v-30.994c0-9.486 7.693-17.179 17.179-17.179 24.306 0 36.488-29.436 19.308-46.616-6.706-6.706-6.706-17.583 0-24.289l21.932-21.932c6.706-6.706 17.583-6.706 24.289 0 17.18 17.18 46.616 4.998 46.616-19.308 0-9.486 7.693-17.179 17.179-17.179h30.994c9.486 0 17.179 7.693 17.179 17.179 0 24.306 29.436 36.488 46.616 19.308 4.259-4.259 10.213-5.812 15.708-4.659V98.609zm0-37.846v23.846h413V60.735c-.008-10.235-4.274-20.04-11.823-27.279-7.656-7.341-18.046-11.449-28.873-11.456H62.696c-10.827.007-21.217 4.115-28.873 11.456C26.274 40.695 22.008 50.5 22 60.735zm462.821 297.913a3.175 3.175 0 0 0 3.179-3.179v-30.994a3.175 3.175 0 0 0-3.179-3.179c-36.746 0-55.196-44.527-29.207-70.515a3.176 3.176 0 0 0 0-4.491L433.7 224.386a3.192 3.192 0 0 0-4.509 0c-25.988 25.989-70.515 7.561-70.515-29.207a3.18 3.18 0 0 0-3.179-3.179h-30.994a3.18 3.18 0 0 0-3.179 3.179c0 36.768-44.527 55.196-70.515 29.207a3.176 3.176 0 0 0-4.491 0l-21.932 21.932a3.176 3.176 0 0 0 0 4.491c25.989 25.988 7.561 70.515-29.207 70.515a3.18 3.18 0 0 0-3.179 3.179v30.994a3.18 3.18 0 0 0 3.179 3.179c36.768 0 55.196 44.527 29.207 70.515a3.192 3.192 0 0 0 0 4.509l21.932 21.914a3.176 3.176 0 0 0 4.491 0c26.01-26.011 70.515-7.583 70.515 29.207a3.175 3.175 0 0 0 3.179 3.179h30.994a3.175 3.175 0 0 0 3.179-3.179c0-36.746 44.527-55.196 70.515-29.207a3.192 3.192 0 0 0 4.509 0l21.914-21.914a3.192 3.192 0 0 0 0-4.509c-25.989-25.988-7.539-70.515 29.207-70.515zM340.009 429c-49.024 0-88.991-39.989-88.991-88.991 0-49.024 39.967-88.991 88.991-88.991 49.002 0 88.991 39.967 88.991 88.991C429 389.011 389.011 429 340.009 429zm0-14C381.302 415 415 381.302 415 340.009c0-41.311-33.698-74.991-74.991-74.991-41.311 0-74.991 33.68-74.991 74.991 0 41.293 33.68 74.991 74.991 74.991zM293 368.091c-6.461-2.734-11-9.134-11-16.586 0-7.453 4.539-13.853 11-16.586V307.5c0-3.863 3.137-7 7-7s7 3.137 7 7v27.419c6.461 2.733 11 9.133 11 16.586 0 7.452-4.539 13.852-11 16.586v4.409c0 3.863-3.137 7-7 7s-7-3.137-7-7zm7-20.586c-2.208 0-4 1.792-4 4 0 2.207 1.792 4 4 4s4-1.793 4-4c0-2.208-1.792-4-4-4zm73 20.586c-6.461-2.734-11-9.134-11-16.586 0-7.453 4.539-13.853 11-16.586V307.5c0-3.863 3.137-7 7-7s7 3.137 7 7v27.419c6.461 2.733 11 9.133 11 16.586 0 7.452-4.539 13.852-11 16.586v4.409c0 3.863-3.137 7-7 7s-7-3.137-7-7zm7-20.586c-2.208 0-4 1.792-4 4 0 2.207 1.792 4 4 4s4-1.793 4-4c0-2.208-1.792-4-4-4zm-47-3.419c-6.461-2.733-11-9.134-11-16.586s4.539-13.853 11-16.586V307.5c0-3.863 3.137-7 7-7s7 3.137 7 7v3.414c6.461 2.733 11 9.134 11 16.586s-4.539 13.853-11 16.586V372.5c0 3.863-3.137 7-7 7s-7-3.137-7-7zm7-20.586c-2.208 0-4 1.792-4 4s1.792 4 4 4 4-1.792 4-4-1.792-4-4-4zM325.585 41.925c6.284 0 11.387 5.099 11.387 11.38 0 6.28-5.103 11.379-11.387 11.379-6.285 0-11.387-5.099-11.387-11.379 0-6.281 5.102-11.38 11.387-11.38zm38.642 0c6.285 0 11.387 5.099 11.387 11.38 0 6.28-5.102 11.379-11.387 11.379-6.284 0-11.386-5.099-11.386-11.379 0-6.281 5.102-11.38 11.386-11.38zm38.642 0c6.285 0 11.387 5.099 11.387 11.38 0 6.28-5.102 11.379-11.387 11.379-6.284 0-11.386-5.099-11.386-11.379 0-6.281 5.102-11.38 11.386-11.38z" fill="#0480e0" opacity="1" data-original="#000000" class=""></path></g></svg>