<svg width="98" height="98" viewBox="0 0 98 98" fill="none" xmlns="http://www.w3.org/2000/svg">
<circle cx="49" cy="49" r="48" stroke="#299E60" stroke-width="2"/>
<path d="M72 71.9988H27M67.5 71.9988V47.2488M31.5 71.9988V47.2488" stroke="#299E60" stroke-width="3" stroke-linecap="round"/>
<path d="M59.6834 27H39.3074C36.6006 27 35.2484 27 34.1616 27.6728C33.0726 28.3433 32.4674 29.5538 31.2591 31.9748L28.0979 39.96C27.3689 41.805 26.7299 43.9785 27.9584 45.5378C28.5371 46.2736 29.3309 46.8105 30.2293 47.0739C31.1276 47.3373 32.0857 47.314 32.9701 47.0072C33.8545 46.7005 34.6213 46.1255 35.1635 45.3624C35.7058 44.5993 35.9966 43.6861 35.9954 42.75C35.9954 43.9435 36.4695 45.0881 37.3134 45.932C38.1573 46.7759 39.3019 47.25 40.4954 47.25C41.6889 47.25 42.8335 46.7759 43.6774 45.932C44.5213 45.0881 44.9954 43.9435 44.9954 42.75C44.9954 43.9435 45.4695 45.0881 46.3134 45.932C47.1573 46.7759 48.3019 47.25 49.4954 47.25C50.6889 47.25 51.8335 46.7759 52.6774 45.932C53.5213 45.0881 53.9954 43.9435 53.9954 42.75C53.9954 43.9435 54.4695 45.0881 55.3134 45.932C56.1573 46.7759 57.3019 47.25 58.4954 47.25C59.6889 47.25 60.8335 46.7759 61.6774 45.932C62.5213 45.0881 62.9954 43.9435 62.9954 42.75C62.9953 43.6854 63.2866 44.5976 63.8289 45.3597C64.3713 46.1218 65.1376 46.696 66.0214 47.0024C66.9052 47.3088 67.8625 47.3321 68.7601 47.0692C69.6578 46.8063 70.4513 46.2702 71.0301 45.5355C72.2586 43.9763 71.6196 41.8028 70.8906 39.9578L67.7316 31.9748C66.5234 29.5538 65.9181 28.3433 64.8291 27.6728C63.7424 27 62.3901 27 59.6834 27Z" stroke="#299E60" stroke-width="3" stroke-linejoin="round"/>
<path d="M43.875 70.8738V64.1238C43.875 62.02 43.875 60.9693 44.3273 60.1863C44.6235 59.6733 45.0495 59.2472 45.5625 58.951C46.3455 58.4988 47.3962 58.4988 49.5 58.4988C51.6038 58.4988 52.6545 58.4988 53.4375 58.951C53.9505 59.2472 54.3765 59.6733 54.6727 60.1863C55.125 60.9693 55.125 62.02 55.125 64.1238V70.8738" stroke="#299E60" stroke-width="1.5" stroke-linecap="round"/>
</svg>
