<svg width="98" height="98" viewBox="0 0 98 98" fill="none" xmlns="http://www.w3.org/2000/svg">
<circle cx="49" cy="49" r="48" stroke="#299E60" stroke-width="2"/>
<path fill-rule="evenodd" clip-rule="evenodd" d="M42.0561 27.7048C42.3867 27.7048 42.7037 27.8362 42.9375 28.0699C43.1713 28.3037 43.3026 28.6208 43.3026 28.9514V37.1784C43.3026 37.509 43.1713 37.826 42.9375 38.0598C42.7037 38.2936 42.3867 38.4249 42.0561 38.4249C41.7255 38.4249 41.4084 38.2936 41.1747 38.0598C40.9409 37.826 40.8096 37.509 40.8096 37.1784V28.9514C40.8096 28.6208 40.9409 28.3037 41.1747 28.0699C41.4084 27.8362 41.7255 27.7048 42.0561 27.7048Z" fill="#299E60"/>
<path fill-rule="evenodd" clip-rule="evenodd" d="M33.2054 35.6066C34.6139 35.2701 36.0512 35.5256 37.5433 36.2959C38.7586 36.9254 39.6212 37.2134 40.2931 37.3517C40.9637 37.4913 41.4972 37.4938 42.1417 37.4938V39.9869H42.1167C41.4735 39.9869 40.7206 39.9869 39.7882 39.7937C38.8446 39.598 37.7664 39.2178 36.3977 38.5097C35.3033 37.9451 34.4781 37.8653 33.785 38.0311C33.057 38.2056 32.2879 38.6917 31.4017 39.6067C29.3673 41.7108 28.7354 43.8773 28.5147 45.5426C28.3901 47.5919 28.7603 51.6381 30.5939 55.5933C31.2172 56.9395 32.1022 58.7968 33.1817 60.2515C33.7202 60.977 34.2612 61.5354 34.781 61.8795C35.2858 62.2123 35.7046 62.3033 36.0848 62.2385C39.9777 61.5678 40.7094 61.5516 41.4685 61.5516H42.7612V64.0447H41.4324C40.9064 64.0447 40.2856 64.0447 36.5086 64.6953C35.3369 64.8973 34.2811 64.537 33.4073 63.9599C32.5485 63.3927 31.8068 62.5812 31.1798 61.7374C29.927 60.0508 28.9473 57.9679 28.3327 56.6416C26.2909 52.2389 25.8746 47.7452 26.0292 45.3432L26.0329 45.3033L26.0379 45.2634C26.3022 43.2141 27.09 40.478 29.6104 37.874C30.6637 36.7846 31.833 35.9344 33.2066 35.6054" fill="#299E60"/>
<path fill-rule="evenodd" clip-rule="evenodd" d="M36.7737 32.4971C38.6385 34.2809 39.6494 36.4436 39.6494 38.1189C39.6494 38.4495 39.7808 38.7666 40.0145 39.0004C40.2483 39.2341 40.5654 39.3655 40.896 39.3655C41.2265 39.3655 41.5436 39.2341 41.7774 39.0004C42.0111 38.7666 42.1425 38.4495 42.1425 38.1189C42.1425 35.5636 40.6865 32.7901 38.4964 30.6947C36.2801 28.5768 33.1625 27 29.6137 27C29.2831 27 28.9661 27.1313 28.7323 27.3651C28.4985 27.5989 28.3672 27.9159 28.3672 28.2465C28.3672 28.5771 28.4985 28.8942 28.7323 29.1279C28.9661 29.3617 29.2831 29.493 29.6137 29.493C32.4109 29.493 34.9338 30.7383 36.7725 32.4971" fill="#299E60"/>
<path fill-rule="evenodd" clip-rule="evenodd" d="M29.2068 27.0107C29.5347 26.9698 29.8655 27.0608 30.1264 27.2637C30.3872 27.4666 30.5568 27.7648 30.5979 28.0927C31.2112 32.9915 35.5154 35.5718 38.992 36.9616C39.2989 37.0845 39.5445 37.3242 39.6747 37.6281C39.805 37.932 39.8091 38.2751 39.6863 38.5821C39.5635 38.8891 39.3237 39.1347 39.0198 39.2649C38.7159 39.3951 38.3728 39.3992 38.0658 39.2764C34.4895 37.8467 28.9226 34.784 28.1248 28.4018C28.0839 28.0739 28.1749 27.7431 28.3778 27.4822C28.5807 27.2214 28.8789 27.0518 29.2068 27.0107ZM50.632 35.6042C49.196 35.2751 47.7226 35.5219 46.1819 36.2873C44.9104 36.918 44.0042 37.2097 43.2937 37.3505C42.5832 37.4914 42.0198 37.4939 41.3491 37.4939C41.0185 37.4939 40.7015 37.6252 40.4677 37.859C40.234 38.0928 40.1026 38.4098 40.1026 38.7404C40.1026 39.071 40.234 39.3881 40.4677 39.6218C40.7015 39.8556 41.0185 39.9869 41.3491 39.9869H41.3728C42.0422 39.9869 42.8188 39.9869 43.7786 39.7962C44.7521 39.603 45.8678 39.2253 47.2888 38.5198C48.4406 37.9489 49.3231 37.8616 50.076 38.0336C50.8563 38.2131 51.6678 38.7093 52.5903 39.6254C54.7293 41.7483 55.3762 43.9284 55.5994 45.5888C55.6478 45.9125 55.8216 46.2042 56.0833 46.4008C56.345 46.5974 56.6735 46.6832 56.9979 46.6397C57.3224 46.5962 57.6166 46.4268 57.8172 46.1681C58.0178 45.9094 58.1086 45.5822 58.07 45.2572C57.7932 43.1967 56.968 40.4581 54.3466 37.8554C53.2484 36.7659 52.0405 35.9258 50.632 35.6042ZM51.8099 61.0045C51.692 60.8909 51.5528 60.8018 51.4004 60.742C51.248 60.6823 51.0853 60.6531 50.9217 60.6562C50.758 60.6594 50.5965 60.6947 50.4465 60.7602C50.2965 60.8257 50.1609 60.9202 50.0474 61.0381C49.1037 62.0179 48.311 62.347 47.6403 62.2373C43.5866 61.5666 42.8288 61.5517 42.0497 61.5517C41.7191 61.5517 41.402 61.683 41.1683 61.9168C40.9345 62.1506 40.8032 62.4676 40.8032 62.7982C40.8032 63.1288 40.9345 63.4459 41.1683 63.6796C41.402 63.9134 41.7191 64.0447 42.0497 64.0447H42.0846C42.6418 64.0447 43.29 64.0447 47.2327 64.6967C49.1299 65.0108 50.7043 63.9487 51.8436 62.767C51.9573 62.6491 52.0466 62.5098 52.1065 62.3573C52.1664 62.2048 52.1956 62.042 52.1924 61.8782C52.1893 61.7143 52.1539 61.5527 52.0883 61.4026C52.0227 61.2525 51.9281 61.118 51.8099 61.0045Z" fill="#299E60"/>
<path fill-rule="evenodd" clip-rule="evenodd" d="M59.2229 38.3474C57.9726 40.6036 57.6485 42.9707 58.1459 44.57C58.1945 44.7264 58.2119 44.8907 58.1969 45.0538C58.182 45.2168 58.1352 45.3753 58.059 45.5202C57.9828 45.6651 57.8789 45.7936 57.7531 45.8984C57.6272 46.0031 57.482 46.0821 57.3257 46.1307C57.1693 46.1793 57.005 46.1966 56.8419 46.1817C56.6789 46.1668 56.5204 46.12 56.3755 46.0438C56.2306 45.9676 56.1021 45.8637 55.9973 45.7378C55.8926 45.612 55.8137 45.4668 55.765 45.3105C55.0059 42.8685 55.5743 39.7884 57.0427 37.1383C58.5298 34.4558 61.0391 32.0263 64.4283 30.9718C64.5847 30.9231 64.749 30.9058 64.9121 30.9207C65.0751 30.9356 65.2336 30.9825 65.3785 31.0587C65.5234 31.1348 65.6519 31.2388 65.7567 31.3646C65.8614 31.4904 65.9404 31.6356 65.989 31.792C66.0376 31.9483 66.0549 32.1127 66.04 32.2757C66.0251 32.4387 65.9783 32.5972 65.9021 32.7422C65.8259 32.8871 65.722 33.0156 65.5961 33.1203C65.4703 33.2251 65.3251 33.304 65.1688 33.3526C62.4975 34.1828 60.4569 36.1224 59.2229 38.3474Z" fill="#299E60"/>
<path fill-rule="evenodd" clip-rule="evenodd" d="M61.8009 39.938C60.345 42.0696 58.3755 43.4196 56.7239 43.6938C56.5603 43.7182 56.4033 43.7749 56.2618 43.8605C56.1204 43.9462 55.9974 44.0591 55.9001 44.1928C55.8027 44.3264 55.7329 44.4781 55.6948 44.639C55.6566 44.7999 55.6509 44.9668 55.6778 45.1299C55.7048 45.293 55.7639 45.4492 55.8518 45.5892C55.9397 45.7293 56.0546 45.8505 56.1897 45.9457C56.3249 46.0409 56.4777 46.1083 56.6391 46.1439C56.8006 46.1796 56.9675 46.1827 57.1302 46.1532C59.6519 45.7356 62.15 43.8459 63.8589 41.3441C65.5891 38.8112 66.6349 35.478 66.0553 31.9765C66.0286 31.815 65.9704 31.6602 65.8839 31.5212C65.7974 31.3821 65.6844 31.2615 65.5513 31.1661C65.4182 31.0707 65.2676 31.0025 65.1081 30.9653C64.9486 30.9281 64.7834 30.9227 64.6218 30.9494C64.4602 30.9761 64.3055 31.0343 64.1665 31.1208C64.0274 31.2073 63.9067 31.3203 63.8114 31.4534C63.716 31.5865 63.6478 31.7371 63.6106 31.8966C63.5734 32.0561 63.568 32.2213 63.5947 32.3829C64.0522 35.1427 63.2357 37.8364 61.7997 39.9368" fill="#299E60"/>
<path fill-rule="evenodd" clip-rule="evenodd" d="M58.1377 46.9446C57.3112 46.9446 56.5185 47.2729 55.9341 47.8573C55.3497 48.4417 55.0214 49.2344 55.0214 50.0609C55.0214 50.8874 55.3497 51.68 55.9341 52.2644C56.5185 52.8488 57.3112 53.1772 58.1377 53.1772C58.9641 53.1772 59.7568 52.8488 60.3412 52.2644C60.9256 51.68 61.2539 50.8874 61.2539 50.0609C61.2539 49.2344 60.9256 48.4417 60.3412 47.8573C59.7568 47.2729 58.9641 46.9446 58.1377 46.9446ZM52.5283 50.0609C52.5283 49.3242 52.6734 48.5948 52.9553 47.9143C53.2372 47.2337 53.6504 46.6153 54.1713 46.0945C54.6921 45.5736 55.3105 45.1604 55.9911 44.8785C56.6716 44.5966 57.401 44.4515 58.1377 44.4515C58.8743 44.4515 59.6037 44.5966 60.2843 44.8785C60.9648 45.1604 61.5832 45.5736 62.104 46.0945C62.6249 46.6153 63.0381 47.2337 63.32 47.9143C63.6019 48.5948 63.747 49.3242 63.747 50.0609C63.747 51.5486 63.156 52.9753 62.104 54.0273C61.0521 55.0792 59.6253 55.6702 58.1377 55.6702C56.65 55.6702 55.2232 55.0792 54.1713 54.0273C53.1193 52.9753 52.5283 51.5486 52.5283 50.0609Z" fill="#299E60"/>
<path fill-rule="evenodd" clip-rule="evenodd" d="M65.6942 40.8244C67.0944 41.3268 68.2377 42.3648 68.8726 43.7102C69.5075 45.0555 69.582 46.5979 69.0797 47.9981C69.0245 48.1523 68.9394 48.294 68.8294 48.4152C68.7194 48.5365 68.5866 48.6349 68.4385 48.7048C68.2905 48.7747 68.1301 48.8148 67.9666 48.8227C67.8031 48.8306 67.6396 48.8063 67.4854 48.751C67.3313 48.6958 67.1896 48.6107 67.0684 48.5007C66.9471 48.3907 66.8487 48.2579 66.7788 48.1098C66.7089 47.9618 66.6688 47.8014 66.6609 47.6379C66.6529 47.4743 66.6773 47.3109 66.7325 47.1567C67.0119 46.3788 66.9708 45.5218 66.6183 44.7742C66.2658 44.0267 65.6307 43.4497 64.8528 43.1704C64.0749 42.891 63.2179 42.9321 62.4703 43.2846C61.7227 43.6372 61.1458 44.2722 60.8664 45.0501C60.8142 45.208 60.7309 45.3538 60.6214 45.479C60.5119 45.6042 60.3785 45.7062 60.2291 45.779C60.0796 45.8519 59.917 45.8941 59.751 45.9031C59.5849 45.9122 59.4187 45.8879 59.2622 45.8318C59.1057 45.7757 58.962 45.6888 58.8395 45.5762C58.7171 45.4637 58.6184 45.3278 58.5493 45.1766C58.4802 45.0253 58.442 44.8618 58.4371 44.6956C58.4321 44.5293 58.4605 44.3638 58.5205 44.2087C59.0231 42.8087 60.0613 41.6657 61.4065 41.0311C62.7518 40.3964 64.2941 40.3221 65.6942 40.8244Z" fill="#299E60"/>
<path fill-rule="evenodd" clip-rule="evenodd" d="M63.7101 47.1635C64.9863 46.7975 66.3509 46.8958 67.5613 47.4411C68.7718 47.9863 69.7497 48.9432 70.3212 50.1415C70.8927 51.3398 71.0207 52.7019 70.6826 53.9857C70.3444 55.2695 69.562 56.3918 68.4743 57.1531C68.2031 57.3342 67.8716 57.4018 67.551 57.3413C67.2305 57.2808 66.9464 57.0971 66.7598 56.8296C66.5732 56.562 66.4989 56.232 66.5528 55.9103C66.6068 55.5886 66.7846 55.3009 67.0483 55.1088C67.3914 54.8689 67.6825 54.5624 67.9045 54.2075C68.1265 53.8526 68.2746 53.4566 68.3402 53.0431C68.4058 52.6297 68.3874 52.2073 68.2861 51.8011C68.1848 51.395 68.0027 51.0134 67.7507 50.6791C67.4988 50.3449 67.182 50.0648 66.8194 49.8556C66.4568 49.6465 66.0558 49.5125 65.6403 49.4618C65.2248 49.411 64.8033 49.4445 64.401 49.5602C63.9987 49.6759 63.6238 49.8715 63.2988 50.1352C63.1718 50.2385 63.0256 50.3158 62.8688 50.3626C62.7119 50.4094 62.5473 50.4249 62.3844 50.4081C62.2216 50.3913 62.0636 50.3426 61.9196 50.2648C61.7755 50.1869 61.6482 50.0815 61.5449 49.9545C61.4417 49.8274 61.3644 49.6813 61.3176 49.5244C61.2708 49.3675 61.2553 49.203 61.2721 49.0401C61.2889 48.8772 61.3376 48.7193 61.4154 48.5752C61.4932 48.4312 61.5987 48.3039 61.7257 48.2006C62.3108 47.7251 62.9857 47.3723 63.7101 47.1635ZM53.1484 54.4232C52.3219 54.4232 51.5293 54.7516 50.9448 55.336C50.3604 55.9204 50.0321 56.713 50.0321 57.5395C50.0321 58.366 50.3604 59.1587 50.9448 59.7431C51.5293 60.3275 52.3219 60.6558 53.1484 60.6558C53.9749 60.6558 54.7675 60.3275 55.3519 59.7431C55.9364 59.1587 56.2647 58.366 56.2647 57.5395C56.2647 56.713 55.9364 55.9204 55.3519 55.336C54.7675 54.7516 53.9749 54.4232 53.1484 54.4232ZM47.5391 57.5395C47.5391 56.0518 48.13 54.6251 49.182 53.5731C50.234 52.5212 51.6607 51.9302 53.1484 51.9302C54.6361 51.9302 56.0628 52.5212 57.1148 53.5731C58.1667 54.6251 58.7577 56.0518 58.7577 57.5395C58.7577 59.0272 58.1667 60.454 57.1148 61.5059C56.0628 62.5579 54.6361 63.1489 53.1484 63.1489C51.6607 63.1489 50.234 62.5579 49.182 61.5059C48.13 60.454 47.5391 59.0272 47.5391 57.5395Z" fill="#299E60"/>
<path fill-rule="evenodd" clip-rule="evenodd" d="M63.122 54.4231C62.2955 54.4231 61.5029 54.7514 60.9185 55.3358C60.3341 55.9203 60.0057 56.7129 60.0057 57.5394C60.0057 58.3659 60.3341 59.1585 60.9185 59.7429C61.5029 60.3274 62.2955 60.6557 63.122 60.6557C63.9485 60.6557 64.7412 60.3274 65.3256 59.7429C65.91 59.1585 66.2383 58.3659 66.2383 57.5394C66.2383 56.7129 65.91 55.9203 65.3256 55.3358C64.7412 54.7514 63.9485 54.4231 63.122 54.4231ZM57.5127 57.5394C57.5127 56.0517 58.1037 54.6249 59.1556 53.573C60.2076 52.521 61.6343 51.9301 63.122 51.9301C64.6097 51.9301 66.0365 52.521 67.0884 53.573C68.1404 54.6249 68.7314 56.0517 68.7314 57.5394C68.7314 59.0271 68.1404 60.4538 67.0884 61.5058C66.0365 62.5577 64.6097 63.1487 63.122 63.1487C61.6343 63.1487 60.2076 62.5577 59.1556 61.5058C58.1037 60.4538 57.5127 59.0271 57.5127 57.5394Z" fill="#299E60"/>
<path fill-rule="evenodd" clip-rule="evenodd" d="M58.1377 61.9027C57.3112 61.9027 56.5185 62.231 55.9341 62.8154C55.3497 63.3999 55.0214 64.1925 55.0214 65.019C55.0214 65.8455 55.3497 66.6381 55.9341 67.2226C56.5185 67.807 57.3112 68.1353 58.1377 68.1353C58.9641 68.1353 59.7568 67.807 60.3412 67.2226C60.9256 66.6381 61.2539 65.8455 61.2539 65.019C61.2539 64.1925 60.9256 63.3999 60.3412 62.8154C59.7568 62.231 58.9641 61.9027 58.1377 61.9027ZM52.5283 65.019C52.5283 64.2824 52.6734 63.553 52.9553 62.8724C53.2372 62.1918 53.6504 61.5735 54.1713 61.0526C54.6921 60.5317 55.3105 60.1185 55.9911 59.8367C56.6716 59.5548 57.401 59.4097 58.1377 59.4097C58.8743 59.4097 59.6037 59.5548 60.2843 59.8367C60.9648 60.1185 61.5832 60.5317 62.104 61.0526C62.6249 61.5735 63.0381 62.1918 63.32 62.8724C63.6019 63.553 63.747 64.2824 63.747 65.019C63.747 66.5067 63.156 67.9334 62.104 68.9854C61.0521 70.0373 59.6253 70.6283 58.1377 70.6283C56.65 70.6283 55.2232 70.0373 54.1713 68.9854C53.1193 67.9334 52.5283 66.5067 52.5283 65.019Z" fill="#299E60"/>
<path fill-rule="evenodd" clip-rule="evenodd" d="M65.6841 60.6141C65.739 60.4599 65.8239 60.3181 65.9337 60.1966C66.0435 60.0752 66.1762 59.9766 66.3241 59.9065C66.472 59.8363 66.6323 59.796 66.7959 59.7878C66.9594 59.7796 67.1229 59.8037 67.2771 59.8588C68.0679 60.1411 68.7852 60.5974 69.3761 61.194C69.967 61.7906 70.4165 62.5122 70.6913 63.3057C70.9661 64.0991 71.0592 64.9441 70.9639 65.7784C70.8685 66.6126 70.5871 67.4149 70.1404 68.1258C69.6936 68.8368 69.0929 69.4384 68.3827 69.8863C67.6724 70.3341 66.8706 70.6168 66.0365 70.7135C65.2024 70.8101 64.3572 70.7183 63.5633 70.4447C62.7695 70.1711 62.0471 69.7228 61.4496 69.1328C61.3301 69.0186 61.2345 68.8816 61.1684 68.73C61.1023 68.5784 61.067 68.4152 61.0646 68.2498C61.0622 68.0844 61.0927 67.9202 61.1544 67.7668C61.2161 67.6133 61.3078 67.4737 61.424 67.356C61.5402 67.2383 61.6786 67.1449 61.8313 67.0813C61.9839 67.0176 62.1477 66.985 62.3131 66.9853C62.4785 66.9856 62.6422 67.0188 62.7946 67.0829C62.9471 67.1471 63.0852 67.241 63.201 67.3591C63.5329 67.6868 63.9341 67.9359 64.3751 68.0879C64.8161 68.2399 65.2857 68.291 65.749 68.2373C66.2124 68.1837 66.6578 68.0267 67.0524 67.778C67.447 67.5292 67.7808 67.1951 68.029 66.8002C68.2773 66.4052 68.4337 65.9596 68.4867 65.4962C68.5398 65.0328 68.4881 64.5633 68.3356 64.1225C68.183 63.6817 67.9335 63.2808 67.6053 62.9493C67.2771 62.6178 66.8787 62.3642 66.4394 62.2072C66.2851 62.1522 66.1431 62.0674 66.0216 61.9574C65.9 61.8475 65.8014 61.7147 65.7312 61.5667C65.661 61.4186 65.6208 61.2581 65.6127 61.0945C65.6046 60.9308 65.6288 60.7684 65.6841 60.6141Z" fill="#299E60"/>
</svg>
