<svg width="98" height="98" viewBox="0 0 98 98" fill="none" xmlns="http://www.w3.org/2000/svg">
<circle cx="49" cy="49" r="48" stroke="#299E60" stroke-width="2"/>
<path d="M35.583 39.4166H33.0703C32.664 39.4165 32.2623 39.5025 31.8917 39.6689C31.5211 39.8353 31.1899 40.0784 30.9201 40.3821C30.6503 40.6858 30.4479 41.0432 30.3262 41.4308C30.2046 41.8185 30.1665 42.2275 30.2144 42.6309L32.823 64.5595C32.8783 65.0252 33.1025 65.4545 33.4531 65.766C33.8037 66.0775 34.2563 66.2497 34.7253 66.25H63.828C64.3043 66.25 64.7637 66.0727 65.1164 65.7526C65.4691 65.4324 65.69 64.9924 65.736 64.5183L67.8616 42.5686C67.9002 42.1695 67.8549 41.7668 67.7287 41.3863C67.6025 41.0058 67.3981 40.6559 67.1286 40.3591C66.8591 40.0623 66.5305 39.8251 66.1639 39.6628C65.7974 39.5005 65.4009 39.4166 65 39.4166H62.4163M30.7913 47.0833H67.208M40.3747 53.7916H57.6247M42.2913 60.5H55.708" stroke="#299E60" stroke-width="3" stroke-linecap="round" stroke-linejoin="round"/>
<path d="M48.9997 31.75C44.7658 31.75 41.333 38.3865 41.333 46.5725C41.333 46.7431 41.3346 46.9134 41.3378 47.0833H56.6615C56.6647 46.9134 56.6663 46.7431 56.6663 46.5725C56.6663 38.3865 53.2336 31.75 48.9997 31.75Z" stroke="#299E60" stroke-width="3" stroke-linecap="round" stroke-linejoin="round"/>
</svg>
