<svg width="98" height="98" viewBox="0 0 98 98" fill="none" xmlns="http://www.w3.org/2000/svg">
<circle cx="49" cy="49" r="48" stroke="#299E60" stroke-width="2"/>
<path d="M53.9108 39.1879L58.7287 34.3675C58.1587 33.7976 57.738 33.096 57.5039 32.3248C57.2698 31.5536 57.2295 30.7365 57.3866 29.946C57.5437 29.1554 57.8934 28.4158 58.4046 27.7927C58.9157 27.1696 59.5727 26.6821 60.3173 26.3735C61.0619 26.0649 61.8711 25.9447 62.6732 26.0235C63.4753 26.1023 64.2456 26.3777 64.9159 26.8253C65.5862 27.2729 66.1357 27.8789 66.5159 28.5897C66.896 29.3004 67.095 30.0939 67.0952 30.8998C67.9014 30.8993 68.6953 31.0976 69.4065 31.4772C70.1178 31.8568 70.7244 32.406 71.1726 33.0761C71.6209 33.7462 71.8969 34.5165 71.9762 35.3188C72.0555 36.1211 71.9358 36.9305 71.6274 37.6754C71.3191 38.4204 70.8318 39.0777 70.2087 39.5893C69.5856 40.1008 68.8459 40.4508 68.0552 40.6081C67.2645 40.7654 66.4472 40.7253 65.6757 40.4912C64.9043 40.2572 64.2024 39.8364 63.6325 39.2663L59.1723 43.7289M38.9128 57.8567L41.3635 60.3073M35.0016 64.2185C41.6992 70.9185 49.4604 74.021 52.3276 71.1514C55.1998 68.2792 52.0973 60.5205 45.3972 53.823C38.6996 47.123 30.9384 44.0205 28.0712 46.8902C25.199 49.7623 28.3015 57.521 35.0016 64.2185Z" stroke="#299E60" stroke-width="3" stroke-linecap="round" stroke-linejoin="round"/>
<path d="M52.3302 71.1514C61.9 61.5793 64.2281 48.39 57.528 41.6925C50.8304 34.9925 37.6411 37.3206 28.0713 46.8903" stroke="#299E60" stroke-width="3" stroke-linecap="round" stroke-linejoin="round"/>
</svg>
