<svg width="98" height="98" viewBox="0 0 98 98" fill="none" xmlns="http://www.w3.org/2000/svg">
<circle cx="49" cy="49" r="48" stroke="#299E60" stroke-width="2"/>
<path d="M27 27H47.25V47.25H27V27ZM31.5 31.5V42.75H42.75V31.5H31.5ZM61.875 31.5C60.3832 31.5 58.9524 32.0926 57.8975 33.1475C56.8426 34.2024 56.25 35.6332 56.25 37.125C56.25 38.6168 56.8426 40.0476 57.8975 41.1025C58.9524 42.1574 60.3832 42.75 61.875 42.75C63.3668 42.75 64.7976 42.1574 65.8525 41.1025C66.9074 40.0476 67.5 38.6168 67.5 37.125C67.5 35.6332 66.9074 34.2024 65.8525 33.1475C64.7976 32.0926 63.3668 31.5 61.875 31.5ZM51.75 37.125C51.75 35.7954 52.0119 34.4788 52.5207 33.2503C53.0295 32.0219 53.7754 30.9057 54.7155 29.9655C55.6557 29.0254 56.7719 28.2795 58.0003 27.7707C59.2288 27.2619 60.5454 27 61.875 27C63.2046 27 64.5213 27.2619 65.7497 27.7707C66.9781 28.2795 68.0943 29.0254 69.0345 29.9655C69.9746 30.9057 70.7205 32.0219 71.2293 33.2503C71.7381 34.4788 72 35.7954 72 37.125C72 39.8103 70.9333 42.3856 69.0345 44.2845C67.1357 46.1833 64.5603 47.25 61.875 47.25C59.1897 47.25 56.6144 46.1833 54.7155 44.2845C52.8167 42.3856 51.75 39.8103 51.75 37.125ZM27 51.75H47.25V72H27V51.75ZM31.5 56.25V67.5H42.75V56.25H31.5ZM51.75 51.75H72V72H51.75V51.75ZM56.25 56.25V67.5H67.5V56.25H56.25Z" fill="#299E60"/>
</svg>
