<svg width="98" height="98" viewBox="0 0 98 98" fill="none" xmlns="http://www.w3.org/2000/svg">
<circle cx="49" cy="49" r="48" stroke="#299E60" stroke-width="2"/>
<path d="M37.8075 27H29.5V22H41.1925L46.1925 34.5H72V39.5H66.705L64.6375 74.6475C64.5999 75.2838 64.3207 75.8817 63.8569 76.3189C63.3932 76.7562 62.7799 76.9998 62.1425 77H36.8575C36.2201 76.9998 35.6068 76.7562 35.1431 76.3189C34.6793 75.8817 34.4001 75.2838 34.3625 74.6475L32.295 39.5H27V34.5H40.8075L37.8075 27ZM37.3025 39.5L37.7475 47.0625C44.4275 47.3375 47.67 48.575 50.4 49.6675C53.0275 50.7175 55.2 51.6325 60.9675 51.9175L61.6975 39.5H37.3025Z" fill="#299E60"/>
</svg>
