<svg width="329" height="393" viewBox="0 0 329 393" fill="none" xmlns="http://www.w3.org/2000/svg">
<path d="M239.66 43.4388C236.053 54.5073 230.218 64.7658 223.185 73.2978V73.3135C216.089 81.8945 206.61 89.481 196.064 94.5115C186.386 99.1283 175.777 101.615 165.22 100.792L161.989 100.54L161.564 97.3225C160.192 86.9478 161.776 76.445 165.112 66.7258C168.994 55.4158 175.281 45.0958 182.028 37.2758L182.027 37.2748C189.009 29.096 198.372 21.9803 208.398 16.8245C218.459 11.651 229.265 8.41577 239.099 8.01527L242.817 7.86377L243.224 11.5778C244.415 22.4398 242.967 33.2898 239.66 43.4388Z" fill="white"/>
<path d="M308.013 141.016C304.449 143.221 270.001 164.536 270.428 207.501C270.879 259.296 314.797 277.251 317.221 278.242H317.237L317.342 278.286L320.787 279.712L319.607 283.238C319.537 283.448 319.617 283.225 319.515 283.553C318.394 287.143 310.797 311.48 293.637 336.557C285.85 347.931 277.916 359.289 268.549 368.049C258.85 377.12 247.773 383.243 234.09 383.497C221.192 383.739 212.748 380.086 203.971 376.288C195.601 372.666 186.897 368.9 173.276 368.9C158.968 368.9 149.821 372.796 141.011 376.55C132.718 380.083 124.698 383.5 113.143 383.961H113.127C99.7846 384.456 88.2151 377.952 77.9326 368.319C68.0951 359.103 59.4764 347.034 51.6226 335.674C33.8931 310.074 18.4744 272.826 13.7106 234.951C9.79238 203.797 13.0676 172.15 28.1296 146.013C36.5379 131.389 48.2896 119.455 62.0291 111.127C75.7059 102.838 91.3539 98.1205 107.642 97.8762C121.902 97.6175 135.348 102.953 147.113 107.622C155.439 110.926 162.858 113.87 168.419 113.87C173.333 113.87 180.575 111.015 189.018 107.686C203.277 102.064 220.722 95.1875 239.168 97.0217C246.914 97.3587 263.049 99.2142 279.543 108.153C290.05 113.847 300.707 122.396 309.468 135.218L311.778 138.599L308.328 140.827C308.143 140.947 308.323 140.825 308.013 141.016Z" fill="white"/>
</svg>
