<svg width="21" height="20" viewBox="0 0 21 20" fill="none" xmlns="http://www.w3.org/2000/svg">
<path fill-rule="evenodd" clip-rule="evenodd" d="M1.71387 10.0001C1.71387 5.40008 5.5453 1.66675 10.2767 1.66675C15.0167 1.66675 18.8567 5.40008 18.8567 10.0001C18.8567 14.6001 15.0167 18.3334 10.2767 18.3334C5.5453 18.3334 1.71387 14.6001 1.71387 10.0001ZM13.6877 6.66686H16.2163C15.3935 5.29186 14.082 4.2252 12.5049 3.7002C13.0192 4.6252 13.4135 5.6252 13.6877 6.66686ZM10.2856 3.3667C10.997 4.3667 11.5542 5.47503 11.9227 6.6667H8.64844C9.01701 5.47503 9.57415 4.3667 10.2856 3.3667ZM3.42773 10.0002C3.42773 10.5752 3.51345 11.1335 3.65059 11.6668H6.54773C6.47916 11.1168 6.42773 10.5668 6.42773 10.0002C6.42773 9.4335 6.47916 8.8835 6.54773 8.3335H3.65059C3.51345 8.86683 3.42773 9.42516 3.42773 10.0002ZM4.35352 13.3335H6.88209C7.15637 14.3752 7.55066 15.3752 8.06494 16.3002C6.4878 15.7752 5.17637 14.7168 4.35352 13.3335ZM4.35352 6.66686H6.88209C7.15637 5.6252 7.55066 4.6252 8.06494 3.7002C6.4878 4.2252 5.17637 5.28353 4.35352 6.66686ZM10.2856 16.6335C9.57415 15.6335 9.01701 14.5252 8.64844 13.3335H11.9227C11.5542 14.5252 10.997 15.6335 10.2856 16.6335ZM8.27958 11.6667H12.291C12.3682 11.1167 12.4282 10.5667 12.4282 10.0001C12.4282 9.43341 12.3682 8.87508 12.291 8.33341H8.27958C8.20244 8.87508 8.14244 9.43341 8.14244 10.0001C8.14244 10.5667 8.20244 11.1167 8.27958 11.6667ZM12.5049 16.3002C13.0192 15.3752 13.4135 14.3752 13.6877 13.3335H16.2163C15.3935 14.7085 14.082 15.7752 12.5049 16.3002ZM14.1424 10.0001C14.1424 10.5667 14.091 11.1167 14.0224 11.6667H16.9196C17.0567 11.1334 17.1424 10.5751 17.1424 10.0001C17.1424 9.42508 17.0567 8.86675 16.9196 8.33341H14.0224C14.091 8.88341 14.1424 9.43341 14.1424 10.0001Z" fill="#141416"/>
</svg>
