<svg width="28" height="20" viewBox="0 0 28 20" fill="none" xmlns="http://www.w3.org/2000/svg">
<path fill-rule="evenodd" clip-rule="evenodd" d="M0.717285 2.875C0.717285 1.56332 1.90507 0.5 3.37027 0.5H24.5941C26.0533 0.5 27.2471 1.55687 27.2471 2.875V7.625C25.788 7.625 24.5941 8.68188 24.5941 10C24.5941 11.3117 25.7819 12.375 27.2471 12.375V17.125C27.2471 18.4367 26.0593 19.5 24.5941 19.5H3.37027C1.90507 19.5 0.717285 18.4367 0.717285 17.125V12.375C2.18249 12.375 3.37027 11.3117 3.37027 10C3.37027 8.69375 2.18969 7.625 0.717285 7.625V2.875ZM20.6147 5.84375L18.6249 4.0625L7.34975 14.1562L9.33949 15.9375L20.6147 5.84375ZM9.7507 4.11C11.0507 4.11 12.0986 5.04812 12.0986 6.21187C12.0986 7.37271 11.0474 8.31375 9.7507 8.31375C8.45074 8.31375 7.40281 7.37563 7.40281 6.21187C7.40281 5.05104 8.45399 4.11 9.7507 4.11ZM20.5616 13.7881C20.5616 12.6244 19.5137 11.6862 18.2137 11.6862C16.917 11.6862 15.8658 12.6273 15.8658 13.7881C15.8658 14.9519 16.9138 15.89 18.2137 15.89C19.5104 15.89 20.5616 14.949 20.5616 13.7881Z" fill="#19603B"/>
</svg>
