<svg width="16" height="16" viewBox="0 0 16 16" fill="none" xmlns="http://www.w3.org/2000/svg">
<path d="M8.00042 0C5.82782 0 5.55517 0.00950015 4.70186 0.0483335C3.85022 0.0873335 3.2689 0.222167 2.76025 0.42C2.2341 0.624333 1.78778 0.897667 1.34313 1.3425C0.898139 1.78717 0.624814 2.2335 0.41982 2.7595C0.221493 3.26833 0.0864973 3.84983 0.0481651 4.70117C0.00999962 5.5545 0 5.82733 0 8C0 10.1727 0.00966653 10.4445 0.048332 11.2978C0.0874975 12.1495 0.222327 12.7308 0.419987 13.2395C0.624481 13.7657 0.897806 14.212 1.34263 14.6567C1.78711 15.1017 2.23343 15.3757 2.75925 15.58C3.26823 15.7778 3.84972 15.9127 4.70119 15.9517C5.5545 15.9905 5.82699 16 7.99942 16C10.1722 16 10.444 15.9905 11.2973 15.9517C12.149 15.9127 12.7309 15.7778 13.2399 15.58C13.7659 15.3757 14.2116 15.1017 14.6561 14.6567C15.101 14.212 15.3744 13.7657 15.5794 13.2397C15.776 12.7308 15.911 12.1493 15.951 11.298C15.9893 10.4447 15.9993 10.1727 15.9993 8C15.9993 5.82733 15.9893 5.55467 15.951 4.70133C15.911 3.84967 15.776 3.26833 15.5794 2.75967C15.3744 2.2335 15.101 1.78717 14.6561 1.3425C14.2111 0.8975 13.7661 0.624167 13.2394 0.42C12.7294 0.222167 12.1478 0.0873335 11.2962 0.0483335C10.4429 0.00950015 10.1712 0 7.99792 0H8.00042ZM7.28278 1.44167C7.49577 1.44133 7.73343 1.44167 8.00042 1.44167C10.1364 1.44167 10.3895 1.44933 11.233 1.48767C12.013 1.52333 12.4363 1.65367 12.7183 1.76317C13.0916 1.90817 13.3578 2.0815 13.6376 2.3615C13.9176 2.6415 14.0909 2.90817 14.2362 3.2815C14.3457 3.56317 14.4762 3.9865 14.5117 4.7665C14.5501 5.60983 14.5584 5.86317 14.5584 7.99817C14.5584 10.1332 14.5501 10.3865 14.5117 11.2298C14.4761 12.0098 14.3457 12.4332 14.2362 12.7148C14.0912 13.0882 13.9176 13.354 13.6376 13.6338C13.3576 13.9138 13.0918 14.0872 12.7183 14.2322C12.4366 14.3422 12.013 14.4722 11.233 14.5078C10.3897 14.5462 10.1364 14.5545 8.00042 14.5545C5.86432 14.5545 5.61116 14.5462 4.76786 14.5078C3.98788 14.4718 3.56456 14.3415 3.2824 14.232C2.90908 14.087 2.64242 13.9137 2.36243 13.6337C2.08244 13.3537 1.90911 13.0877 1.76378 12.7142C1.65428 12.4325 1.52379 12.0092 1.48829 11.2292C1.44996 10.3858 1.44229 10.1325 1.44229 7.99617C1.44229 5.85983 1.44996 5.60783 1.48829 4.7645C1.52395 3.9845 1.65428 3.56117 1.76378 3.27917C1.90878 2.90583 2.08244 2.63917 2.36243 2.35917C2.64242 2.07917 2.90908 1.90583 3.2824 1.7605C3.56439 1.6505 3.98788 1.5205 4.76786 1.48467C5.50583 1.45133 5.79182 1.44133 7.28278 1.43967V1.44167ZM12.2706 2.77C11.7406 2.77 11.3107 3.1995 11.3107 3.72967C11.3107 4.25967 11.7406 4.68967 12.2706 4.68967C12.8006 4.68967 13.2306 4.25967 13.2306 3.72967C13.2306 3.19967 12.8006 2.76967 12.2706 2.76967V2.77ZM8.00042 3.89167C5.73166 3.89167 3.89222 5.73117 3.89222 8C3.89222 10.2688 5.73166 12.1075 8.00042 12.1075C10.2692 12.1075 12.108 10.2688 12.108 8C12.108 5.73117 10.269 3.89167 8.00026 3.89167H8.00042ZM8.00042 5.33333C9.47305 5.33333 10.667 6.52717 10.667 8C10.667 9.47267 9.47305 10.6667 8.00042 10.6667C6.52764 10.6667 5.33384 9.47267 5.33384 8C5.33384 6.52717 6.52764 5.33333 8.00042 5.33333Z" fill="#8A9CA7"/>
</svg>
