<svg width="27" height="25" viewBox="0 0 27 25" fill="none" xmlns="http://www.w3.org/2000/svg">
<path fill-rule="evenodd" clip-rule="evenodd" d="M11.9384 1.76591C6.40481 2.31929 2.01107 6.29406 1.39936 11.3H0V13.7H1.39936C2.01107 18.7059 6.40481 22.6807 11.9384 23.2341V24.5H14.5914V23.2341C20.125 22.6807 24.5188 18.7059 25.1305 13.7H26.5299V11.3H25.1305C24.5188 6.29406 20.125 2.31929 14.5914 1.76591V0.5H11.9384V1.76591ZM5.30597 11.3H4.07351C4.6552 7.62117 7.87182 4.71128 11.9384 4.18507V5.3H14.5914V4.18507C18.658 4.71128 21.8747 7.62117 22.4563 11.3H21.2239V13.7H22.4563C21.8747 17.3788 18.658 20.2887 14.5914 20.8149V19.7H11.9384V20.8149C7.87182 20.2887 4.6552 17.3788 4.07351 13.7H5.30597V11.3ZM13.2649 14.9C14.7301 14.9 15.9179 13.8255 15.9179 12.5C15.9179 11.1745 14.7301 10.1 13.2649 10.1C11.7997 10.1 10.6119 11.1745 10.6119 12.5C10.6119 13.8255 11.7997 14.9 13.2649 14.9ZM7.95895 12.5C7.95895 15.151 10.3345 17.3 13.2649 17.3C16.1953 17.3 18.5709 15.151 18.5709 12.5C18.5709 9.84903 16.1953 7.7 13.2649 7.7C10.3345 7.7 7.95895 9.84903 7.95895 12.5Z" fill="#19603B"/>
</svg>
