<svg width="476" height="512" viewBox="0 0 476 512" fill="none" xmlns="http://www.w3.org/2000/svg">
<g clip-path="url(#clip0_1435_4)">
<path d="M77.6172 8.0572C71.9345 4.37849 65.5663 1.88737 58.8958 0.733719C52.2253 -0.419934 45.3904 -0.212277 38.8022 1.3442L269.734 232.277L344.58 157.431L77.6172 8.0572ZM10.1392 20.1162C3.69821 28.6792 -0.00878906 39.1932 -0.00878906 50.3152V461.673C-0.00878906 472.796 3.69921 483.309 10.1392 491.872L246.016 255.995L10.1392 20.1162ZM442.261 212.087L374.995 174.45L293.451 255.994L374.999 337.542L442.272 299.902C458.389 290.872 468.01 274.46 468.01 255.994C468.01 237.528 458.389 221.117 442.261 212.087ZM269.733 279.711L38.8152 510.629C42.6012 511.52 46.4542 512 50.3072 512C59.9981 511.998 69.4819 509.196 77.6172 503.93L344.582 354.558L269.733 279.711Z" fill="white"/>
</g>
<defs>
<clipPath id="clip0_1435_4">
<rect width="476" height="512" fill="white"/>
</clipPath>
</defs>
</svg>
