<svg width="16" height="16" viewBox="0 0 16 16" fill="none" xmlns="http://www.w3.org/2000/svg">
<g clip-path="url(#clip0_1267_758)">
<path d="M10.5465 7.84479C9.14063 7.10061 6.41846 5.70215 6.41846 5.70215L10.0478 8.11839C10.0481 8.11839 9.3867 8.4816 10.5465 7.84479Z" fill="#8A9CA7"/>
<path d="M6.68289 13.3202C3.76272 13.2669 2.76534 13.219 2.15229 13.0939C1.73753 13.0108 1.37709 12.8262 1.11281 12.5586C0.908556 12.356 0.746119 12.0468 0.620095 11.618C0.511994 11.2607 0.469891 10.9634 0.409866 10.2373C0.31798 8.59845 0.296075 7.2586 0.409866 5.76151C0.503744 4.93478 0.54926 3.95334 1.17284 3.38077C1.46727 3.1128 1.80978 2.94035 2.1944 2.86906C2.79521 2.75607 5.35495 2.66675 8.00486 2.66675C10.6488 2.66675 13.2142 2.75607 13.8156 2.86906C14.2961 2.95839 14.7467 3.22608 15.0113 3.57125C15.5802 4.45773 15.5902 5.56004 15.6479 6.42228C15.6718 6.83311 15.6718 9.16595 15.6479 9.57678C15.558 10.9395 15.4858 11.4216 15.2815 11.9215C15.1552 12.237 15.0474 12.4036 14.8608 12.5881C14.5681 12.8722 14.195 13.0611 13.7911 13.1297C11.2641 13.3179 9.11831 13.3588 6.68289 13.3202ZM10.5526 7.84469C9.14675 7.10052 7.8006 6.41045 6.42458 5.69614V9.96958C7.87258 9.1899 9.39909 8.47559 10.5586 7.83878L10.5526 7.84469Z" fill="#8A9CA7"/>
</g>
<defs>
<clipPath id="clip0_1267_758">
<rect width="16" height="16" fill="white" transform="translate(-0.000488281)"/>
</clipPath>
</defs>
</svg>
